<mxfile host="65bd71144e">
    <diagram id="aYR41dTsgEiiHXb4jvld" name="Page-1">
        <mxGraphModel dx="1067" dy="501" grid="0" gridSize="10" guides="1" tooltips="1" connect="1" arrows="1" fold="1" page="1" pageScale="1" pageWidth="850" pageHeight="1100" math="0" shadow="0">
            <root>
                <mxCell id="0"/>
                <mxCell id="1" parent="0"/>
                <mxCell id="9" style="edgeStyle=none;html=1;" edge="1" parent="1" source="2" target="5">
                    <mxGeometry relative="1" as="geometry"/>
                </mxCell>
                <mxCell id="10" style="edgeStyle=none;html=1;" edge="1" parent="1" source="2" target="7">
                    <mxGeometry relative="1" as="geometry"/>
                </mxCell>
                <mxCell id="11" style="edgeStyle=none;html=1;" edge="1" parent="1" source="2" target="8">
                    <mxGeometry relative="1" as="geometry"/>
                </mxCell>
                <mxCell id="12" style="edgeStyle=none;html=1;" edge="1" parent="1" source="2" target="4">
                    <mxGeometry relative="1" as="geometry"/>
                </mxCell>
                <mxCell id="13" style="edgeStyle=none;html=1;" edge="1" parent="1" source="2" target="3">
                    <mxGeometry relative="1" as="geometry"/>
                </mxCell>
                <mxCell id="2" value="Главная страница" style="html=1;" vertex="1" parent="1">
                    <mxGeometry x="310" y="130" width="110" height="50" as="geometry"/>
                </mxCell>
                <mxCell id="3" value="Пользователь" style="html=1;" vertex="1" parent="1">
                    <mxGeometry x="50" y="240" width="110" height="50" as="geometry"/>
                </mxCell>
                <mxCell id="4" value="Авторизация" style="html=1;" vertex="1" parent="1">
                    <mxGeometry x="180" y="240" width="110" height="50" as="geometry"/>
                </mxCell>
                <mxCell id="14" style="edgeStyle=none;html=1;" edge="1" parent="1" source="5" target="6">
                    <mxGeometry relative="1" as="geometry"/>
                </mxCell>
                <mxCell id="5" value="Ветка" style="html=1;" vertex="1" parent="1">
                    <mxGeometry x="310" y="240" width="110" height="50" as="geometry"/>
                </mxCell>
                <mxCell id="6" value="Создание ветки" style="html=1;" vertex="1" parent="1">
                    <mxGeometry x="310" y="330" width="110" height="50" as="geometry"/>
                </mxCell>
                <mxCell id="7" value="Регистрация" style="html=1;" vertex="1" parent="1">
                    <mxGeometry x="440" y="240" width="110" height="50" as="geometry"/>
                </mxCell>
                <mxCell id="8" value="Часто&lt;br&gt;&amp;nbsp;задаваемые &lt;br&gt;вопросы" style="html=1;" vertex="1" parent="1">
                    <mxGeometry x="570" y="240" width="110" height="50" as="geometry"/>
                </mxCell>
            </root>
        </mxGraphModel>
    </diagram>
</mxfile>